<svg xmlns="http://www.w3.org/2000/svg" width="16" height="16" viewBox="0 0 16 16">
  <g id="Group_29390" data-name="Group 29390" transform="translate(-216 -2642)">
    <path id="chevron-circle-right" d="M671.5,364a8,8,0,1,1-8,8A8,8,0,0,1,671.5,364Zm2.39,7.593-3.244-3.244a.571.571,0,0,0-.809,0l0,0-.407.407a.572.572,0,0,0,0,.809l0,0L671.86,372l-2.432,2.432a.572.572,0,0,0,0,.81l0,0,.407.407a.572.572,0,0,0,.81,0l0,0,3.244-3.244a.575.575,0,0,0,0-.813Z" transform="translate(-447.5 2278)" fill="#860063"/>
  </g>
</svg>
