<svg xmlns="http://www.w3.org/2000/svg" xmlns:xlink="http://www.w3.org/1999/xlink" width="54" height="54" viewBox="0 0 54 54">
  <defs>
    <filter id="Rectangle_7749" x="0" y="0" width="54" height="54" filterUnits="userSpaceOnUse">
      <feOffset dy="3" input="SourceAlpha"/>
      <feGaussianBlur stdDeviation="3" result="blur"/>
      <feFlood flood-opacity="0.161"/>
      <feComposite operator="in" in2="blur"/>
      <feComposite in="SourceGraphic"/>
    </filter>
  </defs>
  <g id="Group_29330" data-name="Group 29330" transform="translate(-259 -274)">
    <g transform="matrix(1, 0, 0, 1, 259, 274)" filter="url(#Rectangle_7749)">
      <rect id="Rectangle_7749-2" data-name="Rectangle 7749" width="36" height="36" rx="8" transform="translate(9 6)" fill="#fff"/>
    </g>
    <path id="Icon_material-email" data-name="Icon material-email" d="M18.3,6H4.7A1.7,1.7,0,0,0,3.009,7.7L3,17.9a1.7,1.7,0,0,0,1.7,1.7H18.3A1.7,1.7,0,0,0,20,17.9V7.7A1.7,1.7,0,0,0,18.3,6Zm0,3.4-6.8,4.25L4.7,9.4V7.7l6.8,4.25L18.3,7.7Z" transform="translate(274.5 285.2)" fill="#4a4949"/>
  </g>
</svg>
