<svg xmlns="http://www.w3.org/2000/svg" xmlns:xlink="http://www.w3.org/1999/xlink" width="54" height="54" viewBox="0 0 54 54">
  <defs>
    <filter id="Rectangle_7749" x="0" y="0" width="54" height="54" filterUnits="userSpaceOnUse">
      <feOffset dy="3" input="SourceAlpha"/>
      <feGaussianBlur stdDeviation="3" result="blur"/>
      <feFlood flood-opacity="0.161"/>
      <feComposite operator="in" in2="blur"/>
      <feComposite in="SourceGraphic"/>
    </filter>
  </defs>
  <g id="Group_29330" data-name="Group 29330" transform="translate(-259 -274)">
    <g transform="matrix(1, 0, 0, 1, 259, 274)" filter="url(#Rectangle_7749)">
      <rect id="Rectangle_7749-2" data-name="Rectangle 7749" width="36" height="36" rx="8" transform="translate(9 6)" fill="#fff"/>
    </g>
    <g id="Group_29347" data-name="Group 29347" transform="translate(-415.136 267.523)">
      <path id="Path_14830" data-name="Path 14830" d="M714.332,25.148c0,.826.008,1.652-.005,2.478,0,.216.066.266.271.263.826-.011,1.652-.006,2.478,0a1.116,1.116,0,0,1,.68.187.944.944,0,0,1,.081,1.5c-.71.759-1.425,1.513-2.138,2.269q-1.573,1.666-3.148,3.331a.965.965,0,0,1-1.525,0q-2.6-2.75-5.2-5.5a1.289,1.289,0,0,1-.4-.678.964.964,0,0,1,1.049-1.109c.826-.006,1.652-.009,2.478,0,.216,0,.286-.049.285-.276-.01-1.6,0-3.2-.006-4.8a1.22,1.22,0,0,1,1.253-1.325c.861-.02,1.723-.019,2.584,0a1.209,1.209,0,0,1,1.259,1.312Q714.331,23.975,714.332,25.148Z" transform="translate(-10.972 0)" fill="#4a4949"/>
      <path id="Path_14831" data-name="Path 14831" d="M700.811,168.093H694.55a1.3,1.3,0,0,1-1.164-.514,1.269,1.269,0,0,1,.87-2.018,2.376,2.376,0,0,1,.319-.015q6.247,0,12.5,0a1.3,1.3,0,0,1,1.256.638,1.263,1.263,0,0,1-.883,1.883,2.609,2.609,0,0,1-.424.027Q703.915,168.094,700.811,168.093Z" transform="translate(0 -128.703)" fill="#4a4949"/>
    </g>
  </g>
</svg>
