<svg id="Dashboard_Icon" xmlns="http://www.w3.org/2000/svg" width="32" height="32" viewBox="0 0 32 32">
  <rect id="Rectangle_7794" data-name="Rectangle 7794" width="32" height="32" fill="none"/>
  <g id="Group_29148" data-name="Group 29148" transform="translate(4 4)">
    <g id="Group_29153" data-name="Group 29153">
      <path id="Path_14328" data-name="Path 14328" d="M10.39,16.769c0,1.693.006,3.386-.005,5.079a.99.99,0,0,0,.316.777q3.343,3.319,6.667,6.657c.633.633.6,1.03-.159,1.523A11.089,11.089,0,1,1,9.384,10.595a.81.81,0,0,1,1,.875c.015.772,0,1.546,0,2.318q0,1.49,0,2.981m-1.566.744q0-2.391,0-4.783c0-.416-.011-.422-.414-.305a9.509,9.509,0,0,0,3.124,18.632,10.34,10.34,0,0,0,3.824-.959c.416-.189.413-.216.087-.542q-3.017-3.018-6.038-6.033a1.86,1.86,0,0,1-.587-1.411c.015-1.533.005-3.066.005-4.6" transform="translate(0 -9.022)" fill="#currentColor"/>
      <path id="Path_14329" data-name="Path 14329" d="M90.5,11.084q-2.3,0-4.6,0c-.719,0-.971-.254-.971-.979q0-4.564,0-9.128c0-.748.25-.991,1-.976a10.288,10.288,0,0,1,10,8.85,12.007,12.007,0,0,1,.127,1.279c.024.666-.263.952-.919.953q-2.319,0-4.637,0M86.49,5.545c0,1.19.011,2.38-.007,3.57-.005.353.1.462.46.46,2.343-.014,4.686-.007,7.029-.008.449,0,.492-.051.43-.485a8.684,8.684,0,0,0-7.509-7.45c-.37-.049-.41.077-.407.379.01,1.178,0,2.355,0,3.533" transform="translate(-72.419 0)" fill="#currentColor"/>
      <path id="Path_14330" data-name="Path 14330" d="M102.394,89.965c1.459,0,2.919,0,4.378,0,.757,0,1.065.346.932,1.091a10.706,10.706,0,0,1-3.318,6.209c-.421.386-.783.361-1.245-.1q-2.267-2.259-4.527-4.525c-.416-.416-.836-.829-1.246-1.251a.792.792,0,0,1-.282-.918.855.855,0,0,1,.894-.508c1.472.005,2.943,0,4.415,0M99.74,91.482a.805.805,0,0,0,.077.154q1.929,1.923,3.858,3.845c.157.157.244.08.352-.049a9.883,9.883,0,0,0,1.892-3.587c.082-.28.017-.37-.279-.368-1.546.01-3.092,0-4.637,0H99.74" transform="translate(-82.738 -76.716)" fill="#currentColor"/>
    </g>
  </g>
</svg>
