<svg id="Desktop_Icon" xmlns="http://www.w3.org/2000/svg" width="32" height="32" viewBox="0 0 32 32">
  <rect id="Rectangle_7655" data-name="Rectangle 7655" width="32" height="32" fill="none"/>
  <path id="Path_17480" data-name="Path 17480" d="M2,15H23.819M8.546,22.637h8.728M7.237,19.364H18.583c1.833,0,2.749,0,3.45-.357a3.272,3.272,0,0,0,1.43-1.43c.357-.7.357-1.617.357-3.45V8.237c0-1.833,0-2.749-.357-3.45a3.273,3.273,0,0,0-1.43-1.43C21.332,3,20.416,3,18.583,3H7.237C5.4,3,4.487,3,3.787,3.357a3.273,3.273,0,0,0-1.43,1.43C2,5.487,2,6.4,2,8.237v5.891c0,1.833,0,2.749.357,3.45a3.273,3.273,0,0,0,1.43,1.43C4.487,19.364,5.4,19.364,7.237,19.364Z" transform="translate(3.095 3.035)" fill="none" stroke="currentColor" stroke-linecap="round" stroke-linejoin="round" stroke-width="1.7"/>
</svg>
