<svg id="Dashboard_Icon" xmlns="http://www.w3.org/2000/svg" xmlns:xlink="http://www.w3.org/1999/xlink" width="32" height="32" viewBox="0 0 32 32">
  <defs>
    <clipPath id="clip-path">
      <rect id="Rectangle_7796" data-name="Rectangle 7796" width="17.766" height="23.613" fill="currentColor"/>
    </clipPath>
  </defs>
  <rect id="Rectangle_7794" data-name="Rectangle 7794" width="32" height="32" fill="none"/>
  <g id="Group_29150" data-name="Group 29150" transform="translate(7 4)">
    <g id="Group_29149" data-name="Group 29149" clip-path="url(#clip-path)">
      <path id="Path_14331" data-name="Path 14331" d="M0,11.772Q0,7.5,0,3.236A3.01,3.01,0,0,1,3.215.007C5.484,0,7.753.017,10.022,0A2.451,2.451,0,0,1,11.89.782q2.53,2.57,5.1,5.1a2.5,2.5,0,0,1,.777,1.876q0,6.329,0,12.658a3.011,3.011,0,0,1-3.178,3.2q-5.7,0-11.407,0A3,3,0,0,1,0,20.419Q0,16.1,0,11.772m1.566.037q0,4.417,0,8.835a1.362,1.362,0,0,0,.961,1.366,3.234,3.234,0,0,0,.766.086q5.6,0,11.191,0a3.1,3.1,0,0,0,.476-.036A1.336,1.336,0,0,0,16.2,20.625c0-3.767,0-7.534.007-11.3,0-.329-.086-.449-.434-.445-1.509.017-3.019.01-4.528.006a2.259,2.259,0,0,1-2.406-2.43q0-2.264,0-4.528c0-.224,0-.409-.316-.407-1.816.01-3.632,0-5.448.009A1.453,1.453,0,0,0,1.553,3.122c.033,2.9.013,5.792.013,8.687M16.107,7.321c-.017-.178-.158-.269-.266-.378Q13.323,4.419,10.8,1.9c-.052-.052-.1-.106-.159-.153-.158-.133-.239-.1-.239.112,0,1.63,0,3.259.011,4.888a.556.556,0,0,0,.455.553,2,2,0,0,0,.544.07c1.458,0,2.916,0,4.374,0,.1,0,.219.037.32-.046" transform="translate(0 0)" fill="currentColor"/>
      <path id="Path_14332" data-name="Path 14332" d="M22.247,80.05c1.278,0,1.286-.006,1.63,1.235a16.816,16.816,0,0,1,.555,2.019,2.2,2.2,0,0,1-.95,2.277,2.164,2.164,0,0,1-2.555-.008,2.283,2.283,0,0,1-.92-2.294c.218-.917.5-1.819.773-2.722a.7.7,0,0,1,.7-.505c.257-.01.515,0,.772,0m.661,3.544c-.116-.577-.318-1.229-.51-1.884a.174.174,0,0,0-.188-.138.186.186,0,0,0-.182.153,11.327,11.327,0,0,0-.488,1.948.637.637,0,0,0,.686.757c.42,0,.679-.284.683-.837" transform="translate(-17.018 -68.259)" fill="currentColor"/>
      <path id="Path_14333" data-name="Path 14333" d="M22.3,21.54c-.477,0-.954.007-1.431,0a.757.757,0,1,1-.017-1.509q1.431-.015,2.862,0a.739.739,0,0,1,.821.746c.006.461-.311.755-.84.764-.465.008-.93,0-1.394,0" transform="translate(-17.097 -17.073)" fill="currentColor"/>
      <path id="Path_14334" data-name="Path 14334" d="M22.3,41.541c-.477,0-.954.007-1.431,0a.757.757,0,1,1-.009-1.509q1.431-.015,2.862,0a.738.738,0,0,1,.817.75.746.746,0,0,1-.808.761H22.3" transform="translate(-17.098 -34.129)" fill="currentColor"/>
      <path id="Path_14335" data-name="Path 14335" d="M22.3,61.54c-.477,0-.954.007-1.431,0a.757.757,0,1,1-.014-1.509q1.431-.015,2.862,0a.757.757,0,1,1,.014,1.51c-.244.008-.489,0-.734,0h-.7Z" transform="translate(-17.098 -51.183)" fill="currentColor"/>
    </g>
  </g>
</svg>
