<svg xmlns="http://www.w3.org/2000/svg" xmlns:xlink="http://www.w3.org/1999/xlink" width="82" height="82" viewBox="0 0 82 82">
  <defs>
    <clipPath id="clip-path">
      <rect id="Rectangle_7807" data-name="Rectangle 7807" width="30.453" height="34.686" fill="#00a5b5"/>
    </clipPath>
  </defs>
  <g id="Group_29320" data-name="Group 29320" transform="translate(-1249 -379)">
    <circle id="Ellipse_241" data-name="Ellipse 241" cx="41" cy="41" r="41" transform="translate(1249 379)" fill="#00a5b5" opacity="0.2"/>
    <g id="Group_29164" data-name="Group 29164" transform="translate(1275.25 403)">
      <g id="Group_29163" data-name="Group 29163" clip-path="url(#clip-path)">
        <path id="Path_14340" data-name="Path 14340" d="M15.213,0H29.706c.716,0,.714,0,.486.688-.488,1.47-.971,2.943-1.464,4.412a1.65,1.65,0,0,0-.035.95,60.634,60.634,0,0,1,1.441,6.6,33.473,33.473,0,0,1-.841,13.5,7.553,7.553,0,0,0,.135,5.638,19.438,19.438,0,0,1,.79,2.3c.193.581.178.6-.439.6q-5.354,0-10.708,0H.847c-.845,0-.846,0-.565-.825.477-1.4.95-2.8,1.435-4.194a1.806,1.806,0,0,0,.037-1.11,46.663,46.663,0,0,1-1.5-6.636,41.893,41.893,0,0,1-.2-7.013A43.886,43.886,0,0,1,1.685,6.213a2.1,2.1,0,0,0-.049-1.26C1.151,3.539.7,2.112.233.692.007,0,.006,0,.719,0H15.213m0,6.557q-5.327,0-10.653,0c-.317,0-.593-.014-.7.4a38.925,38.925,0,0,0-1.532,8A35.757,35.757,0,0,0,3.834,27.655a.565.565,0,0,0,.645.481c.955-.022,1.911-.007,2.866-.007q9.247,0,18.495.01c.457,0,.684-.122.777-.587.13-.652.325-1.292.5-1.936a33.583,33.583,0,0,0,.82-12.222,45.286,45.286,0,0,0-1.311-6.233c-.119-.486-.333-.617-.811-.614-3.533.019-7.066.01-10.6.01m-.008-4.328H3.954c-.848,0-.848,0-.575.777a3.992,3.992,0,0,1,.2.615c.1.566.408.722.981.72,6.834-.021,13.667-.014,20.5-.014,1.539,0,1.539,0,2.021-1.435.222-.66.222-.663-.467-.663H15.205m-.041,30.227h11.2c.144,0,.289-.008.433,0,.363.024.51-.1.359-.473a6.209,6.209,0,0,1-.326-.973c-.111-.512-.383-.667-.911-.665q-10.223.028-20.447.012c-1.622,0-1.606.006-2.18,1.533-.178.473-.081.576.408.574,3.823-.016,7.645-.009,11.468-.009" transform="translate(0 0)" fill="#00a5b5"/>
        <path id="Path_14341" data-name="Path 14341" d="M32,49.968a7.819,7.819,0,0,1,4.814,1.217,6.24,6.24,0,0,1,1.558,1.407c.208.274.364.263.584,0a7.2,7.2,0,0,1,5.754-2.619c.721-.01,1.442,0,2.164,0,.283,0,.5.05.51.4A10.556,10.556,0,0,1,45.914,57a8.515,8.515,0,0,1-5.422,3.645c-.535.115-.718.328-.688.859.039.7,0,1.406.009,2.109,0,.334-.129.5-.482.487a10.8,10.8,0,0,0-1.189,0c-.462.034-.657-.129-.636-.612.029-.666-.029-1.336.018-2,.038-.549-.18-.73-.7-.847a8.466,8.466,0,0,1-6.081-4.823,11.507,11.507,0,0,1-.8-5.456c.01-.309.177-.4.454-.4.487.006.974,0,1.6,0m5.514,6.9c0-1.611.013-1.62-.437-2.27A5.3,5.3,0,0,0,32.657,52.2c-.316-.01-.422.12-.4.413a5.761,5.761,0,0,0,.374,1.733,6.381,6.381,0,0,0,4.389,4.04c.392.113.525.011.5-.389-.022-.376,0-.755,0-1.133m2.3-.031c0,.379.022.759-.006,1.136-.034.457.155.521.545.4a6.322,6.322,0,0,0,4.614-5.081c.223-1.1.191-1.086-.9-1.017a4.931,4.931,0,0,0-3.078,1.422,3.242,3.242,0,0,0-1.171,3.141" transform="translate(-23.449 -39.147)" fill="#00a5b5"/>
      </g>
    </g>
  </g>
</svg>
