<svg id="Group_29136" data-name="Group 29136" xmlns="http://www.w3.org/2000/svg" xmlns:xlink="http://www.w3.org/1999/xlink" width="21.864" height="22.977" viewBox="0 0 21.864 22.977">
  <defs>
    <clipPath id="clip-path">
      <rect id="Rectangle_7791" data-name="Rectangle 7791" width="21.864" height="22.977" fill="currentColor"/>
    </clipPath>
  </defs>
  <g id="Group_29135" data-name="Group 29135" clip-path="url(#clip-path)">
    <path id="Path_14320" data-name="Path 14320" d="M11.088,35.724A10.923,10.923,0,0,1,5.777,15.17c.451-.237.755-.219,1.031.062a.718.718,0,0,1-.157,1.2c-.513.336-1.052.631-1.536,1.013A9.359,9.359,0,0,0,3.8,30.821a9.116,9.116,0,0,0,6.667,3.3,9.3,9.3,0,0,0,9.741-8.263,9.187,9.187,0,0,0-4.585-9.173c-.127-.081-.262-.149-.386-.233a.726.726,0,0,1-.315-1.054.755.755,0,0,1,1.108-.26,10.906,10.906,0,0,1,3.518,2.947,10.773,10.773,0,0,1,2.284,5.942,10.958,10.958,0,0,1-9.019,11.536,9.451,9.451,0,0,1-1.725.157" transform="translate(0 -12.749)" fill="currentColor"/>
    <path id="Path_14321" data-name="Path 14321" d="M67.389,6.788q0-2.929,0-5.858c0-.572.255-.89.718-.927a.713.713,0,0,1,.83.588,2.449,2.449,0,0,1,.047.558q0,5.633,0,11.266a2.6,2.6,0,0,1-.036.522.717.717,0,0,1-.8.632.741.741,0,0,1-.751-.7,3.04,3.04,0,0,1-.012-.413q0-2.835,0-5.671" transform="translate(-57.253 0.001)" fill="currentColor"/>
  </g>
</svg>
