<svg xmlns="http://www.w3.org/2000/svg" width="82" height="82" viewBox="0 0 82 82">
  <g id="Group_29322" data-name="Group 29322" transform="translate(-732 -379)">
    <circle id="Ellipse_240" data-name="Ellipse 240" cx="41" cy="41" r="41" transform="translate(732 379)" fill="#7373c0" opacity="0.2"/>
    <g id="Group_29317" data-name="Group 29317">
      <g id="Group_29160" data-name="Group 29160" transform="translate(751.757 403)">
        <g id="Group_29313" data-name="Group 29313">
          <path id="Path_14337" data-name="Path 14337" d="M47.374,4.329c-.834-.874-1.569-1.635-2.293-2.406A.988.988,0,0,1,44.935.475,1.037,1.037,0,0,1,46.543.311q2.264,2.21,4.474,4.473a.877.877,0,0,1,0,1.314q-2.214,2.259-4.473,4.474a1.024,1.024,0,0,1-1.539-.077.98.98,0,0,1,.035-1.489c.6-.648,1.222-1.275,1.83-1.915.133-.14.309-.249.374-.459-.159-.137-.346-.072-.515-.072q-13.574-.006-27.148,0c-.731,0-.731,0-.817.739a6.39,6.39,0,0,1-5.79,5.71c-.5.048-.629.221-.625.691.018,2.361,0,4.723.015,7.084a1.292,1.292,0,0,1-.427,1.051c-.5.463-.973.964-1.459,1.446-.087.086-.169.233-.3.193-.183-.055-.115-.243-.115-.375q-.008-2.488,0-4.975,0-4.543,0-9.085A4.417,4.417,0,0,1,14.766,4.33q15.9,0,31.8,0ZM12.36,9.22c0,.315,0,.567,0,.819,0,.689.116.779.8.649a4.372,4.372,0,0,0,3.366-3.655c.031-.307-.04-.486-.392-.477-.558.014-1.117-.007-1.674.015A2.054,2.054,0,0,0,12.44,8a4.108,4.108,0,0,0-.08,1.224" transform="translate(-7.877 0)" fill="#7373c0"/>
          <path id="Path_14338" data-name="Path 14338" d="M3.93,70.951c.834.87,1.558,1.615,2.27,2.372a1.015,1.015,0,0,1,.223,1.407,1.031,1.031,0,0,1-1.627.259C3.271,73.507,1.771,72,.283,70.478a.877.877,0,0,1,.027-1.315q2.2-2.238,4.435-4.437a1.022,1.022,0,0,1,1.5,0,1,1,0,0,1,.031,1.535c-.592.654-1.219,1.278-1.827,1.919a1.331,1.331,0,0,0-.378.458c.152.152.342.081.51.081q13.6.006,27.2.015c.5,0,.685-.142.737-.645a6.421,6.421,0,0,1,6.023-5.838c.44-.028.413-.3.412-.6,0-2.325.017-4.651-.012-6.976a1.608,1.608,0,0,1,.571-1.372c.437-.374.817-.814,1.234-1.213.12-.114.212-.358.418-.264.162.074.085.293.087.448.007.559,0,1.118,0,1.676q0,6.192,0,12.385a4.428,4.428,0,0,1-3.727,4.559,7.05,7.05,0,0,1-1.132.055q-15.792,0-31.584,0H3.93m35.029-5.079a8.019,8.019,0,0,1,0-.81c.045-.434-.111-.554-.549-.51a4.34,4.34,0,0,0-3.622,3.642c-.035.355.05.558.455.531a7.287,7.287,0,0,1,.864,0c1.792.095,3.025-.509,2.848-2.853" transform="translate(0 -40.597)" fill="#7373c0"/>
        </g>
      </g>
      <g id="Group_29312" data-name="Group 29312" transform="translate(766.866 413.395)">
        <g id="Group_29314" data-name="Group 29314">
          <path id="Path_17479" data-name="Path 17479" d="M5.891,10.142c-.439,0-.879.011-1.317,0-.209-.008-.288.068-.325.266-.136.724-.277,1.447-.432,2.167A.741.741,0,0,1,2.7,13.1a.7.7,0,0,1-.318-.75c.121-.647.255-1.291.381-1.937.053-.27.05-.272-.229-.272-.6,0-1.208,0-1.811,0A.677.677,0,0,1,.09,9.761a.7.7,0,0,1,.047-.756.717.717,0,0,1,.652-.3c.682,0,1.365-.008,2.047,0,.2,0,.271-.075.307-.259Q3.5,6.6,3.884,4.76c.042-.2.01-.276-.218-.271-.658.015-1.317.008-1.976,0A.719.719,0,0,1,1.076,3.36a.716.716,0,0,1,.651-.305c.745,0,1.49-.007,2.235,0,.207,0,.287-.066.322-.269.125-.718.267-1.433.407-2.148A.726.726,0,0,1,5.56.017a.741.741,0,0,1,.585.92C6.024,1.56,5.9,2.183,5.771,2.8c-.04.189.012.254.207.253q1.364-.009,2.729,0c.177,0,.246-.065.277-.236.129-.717.268-1.432.408-2.147a.727.727,0,0,1,.866-.658.716.716,0,0,1,.565.926c-.1.6-.223,1.2-.336,1.8-.055.294-.044.309.253.31.58,0,1.161,0,1.741,0a.693.693,0,0,1,.671.43.686.686,0,0,1-.106.748.725.725,0,0,1-.627.259c-.682,0-1.365.006-2.047,0-.185,0-.26.061-.3.244-.241,1.23-.492,2.458-.739,3.687-.056.278-.053.279.245.279.651,0,1.3,0,1.953,0a.7.7,0,0,1,.674.425.686.686,0,0,1-.1.749.72.72,0,0,1-.625.263c-.714,0-1.427.012-2.141-.006-.254-.006-.354.066-.4.321-.122.7-.268,1.4-.417,2.1A.742.742,0,0,1,7.4,13.1a.705.705,0,0,1-.31-.754c.121-.647.247-1.293.385-1.936.045-.208,0-.278-.219-.27-.454.016-.91,0-1.364,0M6.176,8.7c.462,0,.924-.009,1.386,0a.237.237,0,0,0,.28-.233c.052-.293.114-.584.173-.875Q8.3,6.17,8.589,4.743c.022-.113.089-.252-.139-.251-.948.007-1.9,0-2.843,0a.2.2,0,0,0-.223.186Q5,6.59,4.616,8.5c-.034.166.019.206.174.2.462-.006.924,0,1.386,0" transform="translate(0.001 0)" fill="#7373c0" stroke="#7373c0" stroke-width="0.5"/>
        </g>
      </g>
    </g>
  </g>
</svg>
