<svg xmlns="http://www.w3.org/2000/svg" xmlns:xlink="http://www.w3.org/1999/xlink" width="82" height="82" viewBox="0 0 82 82">
  <defs>
    <clipPath id="clip-path">
      <rect id="Rectangle_7808" data-name="Rectangle 7808" width="43.377" height="34.686" fill="#724b2e"/>
    </clipPath>
  </defs>
  <g id="Group_29321" data-name="Group 29321" transform="translate(-1766 -379)">
    <circle id="Ellipse_242" data-name="Ellipse 242" cx="41" cy="41" r="41" transform="translate(1766 379)" fill="#724b2e" opacity="0.2"/>
    <g id="Group_29166" data-name="Group 29166" transform="translate(1786 403)">
      <g id="Group_29165" data-name="Group 29165" clip-path="url(#clip-path)">
        <path id="Path_14342" data-name="Path 14342" d="M15.186,109.025c-4.251,0-8.5-.051-12.752.028A2.332,2.332,0,0,1,0,106.55,12.055,12.055,0,0,1,10.576,95.014a51.8,51.8,0,0,1,5.721-.1,17.289,17.289,0,0,1,5.148.414,11.771,11.771,0,0,1,8.663,9.095,11.953,11.953,0,0,1,.3,2.3,2.1,2.1,0,0,1-2.2,2.3q-6.512.007-13.023,0m.009-2.227c3.891,0,7.783.009,11.674,0,1.315,0,1.353.3,1.145-1.3A9.852,9.852,0,0,0,19.1,97.215c-2.072-.121-4.14-.04-6.21-.079a13.929,13.929,0,0,0-2.579.214,9.834,9.834,0,0,0-7.975,8.675c-.056.737-.026.773.7.773h12.16" transform="translate(0 -74.368)" fill="#724b2e"/>
        <path id="Path_14343" data-name="Path 14343" d="M38.8,17.359A8.679,8.679,0,1,1,47.508,8.68,8.672,8.672,0,0,1,38.8,17.359m6.41-8.667A6.425,6.425,0,0,0,32.36,8.667a6.425,6.425,0,1,0,12.849.025" transform="translate(-23.572 0)" fill="#724b2e"/>
        <path id="Path_14344" data-name="Path 14344" d="M116.965,25.15c-2.615-.034-4.292-.611-5.714-1.886-.294-.264-.357-.477-.1-.816a6.916,6.916,0,0,0,.684-1.16c.178-.373.309-.333.568-.069a5.282,5.282,0,0,0,3.426,1.625,5.213,5.213,0,0,0,5.591-3.919,5.348,5.348,0,0,0-8.38-5.654c-.4.3-.53.188-.653-.224a6.773,6.773,0,0,0-.445-1.157c-.2-.382-.066-.576.256-.785a7.652,7.652,0,0,1,11.634,5.519c.529,4.49-3.07,8.611-6.865,8.527" transform="translate(-86.993 -7.776)" fill="#724b2e"/>
        <path id="Path_14345" data-name="Path 14345" d="M136.566,112.974c-1.477,0-2.955-.006-4.432,0-.389,0-.553-.076-.339-.488a2.2,2.2,0,0,0,.3-1.086c-.024-.581.257-.672.759-.667,2.378.02,4.756.01,7.134.009.816,0,.84-.048.725-.868a8.615,8.615,0,0,0-3.535-6.079,8.363,8.363,0,0,0-4.366-1.56c-1.081-.08-2.159-.067-3.238-.071a.945.945,0,0,1-.751-.332c-.491-.526-1.017-1.02-1.525-1.531-.06-.061-.141-.149-.134-.217.013-.133.152-.139.257-.136,2.689.073,5.406-.326,8.051.51a10.828,10.828,0,0,1,7.513,9.39,3.036,3.036,0,0,1-.278,2.14,2.032,2.032,0,0,1-1.76.979h-4.378Z" transform="translate(-99.667 -78.317)" fill="#724b2e"/>
      </g>
    </g>
  </g>
</svg>
