<svg id="Settings_1_Icon" data-name="Settings 1_Icon" xmlns="http://www.w3.org/2000/svg" xmlns:xlink="http://www.w3.org/1999/xlink" width="32" height="32" viewBox="0 0 32 32">
  <defs>
    <clipPath id="clip-path">
      <rect id="Rectangle_7657" data-name="Rectangle 7657" width="26.051" height="24.391" fill="currentColor"/>
    </clipPath>
  </defs>
  <rect id="Rectangle_7655" data-name="Rectangle 7655" width="32" height="32" fill="none"/>
  <g id="Group_13650" data-name="Group 13650" transform="translate(3 4)">
    <g id="Group_13645" data-name="Group 13645" clip-path="url(#clip-path)">
      <path id="Path_14311" data-name="Path 14311" d="M19.607,4.916c-1.785,0-3.57.007-5.355-.006a.517.517,0,0,0-.6.422A3.929,3.929,0,0,1,9.779,8.16,3.954,3.954,0,0,1,5.908,5.328.519.519,0,0,0,5.3,4.91c-1.447.013-2.894.009-4.341,0-.559,0-.857-.233-.944-.7a.835.835,0,0,1,.917-.967c1.406-.008,2.813-.021,4.219.006a.683.683,0,0,0,.8-.549A3.932,3.932,0,0,1,9.873,0a3.926,3.926,0,0,1,3.767,2.8.541.541,0,0,0,.624.45c3.543-.013,7.086-.008,10.629-.008.784,0,1.145.259,1.156.822s-.367.849-1.17.849H19.607M7.4,4.071a2.382,2.382,0,0,0,4.763.037A2.382,2.382,0,1,0,7.4,4.071" transform="translate(0 0)" fill="currentColor"/>
      <path id="Path_14312" data-name="Path 14312" d="M7.265,53.242c2.069,0,4.138-.006,6.207.006a.5.5,0,0,0,.579-.4,4.064,4.064,0,0,1,7.756,0,.471.471,0,0,0,.536.4q1.44-.028,2.88,0a.835.835,0,1,1-.078,1.664c-.947,0-1.893.011-2.84-.005a.421.421,0,0,0-.484.359,4.075,4.075,0,0,1-6.172,2.227,3.712,3.712,0,0,1-1.584-2.141c-.106-.359-.28-.446-.631-.445-4.111.011-8.222.006-12.333.009-.413,0-.786-.048-.981-.484a.819.819,0,0,1,.654-1.177,3.706,3.706,0,0,1,.446-.012H7.265m8.287.841a2.381,2.381,0,1,0,2.342-2.392,2.348,2.348,0,0,0-2.342,2.392" transform="translate(-0.033 -41.883)" fill="currentColor"/>
      <path id="Path_14313" data-name="Path 14313" d="M18.847,104.887c-2.069,0-4.138.008-6.207-.007a.518.518,0,0,0-.594.434,3.933,3.933,0,0,1-3.878,2.817,3.956,3.956,0,0,1-3.852-2.8.539.539,0,0,0-.628-.449c-.932.023-1.866.007-2.8,0a.788.788,0,0,1-.779-.478.837.837,0,0,1,.855-1.19c.933,0,1.866-.008,2.8,0a.448.448,0,0,0,.523-.364,4.077,4.077,0,0,1,6.076-2.28,3.608,3.608,0,0,1,1.65,2.133c.124.435.336.517.743.515,4.03-.014,8.06-.009,12.09-.008a3.947,3.947,0,0,1,.526.018.827.827,0,0,1,.005,1.633,6.537,6.537,0,0,1-.77.02q-2.88,0-5.761,0M5.8,104.049a2.381,2.381,0,1,0,2.35-2.385,2.347,2.347,0,0,0-2.35,2.385" transform="translate(-0.022 -83.741)" fill="currentColor"/>
    </g>
  </g>
</svg>
