<svg xmlns="http://www.w3.org/2000/svg" xmlns:xlink="http://www.w3.org/1999/xlink" width="111" height="34" viewBox="0 0 111 34">
  <defs>
    <clipPath id="clip-Artboard_16">
      <rect width="111" height="34"/>
    </clipPath>
  </defs>
  <g id="Artboard_16" data-name="Artboard – 16" clip-path="url(#clip-Artboard_16)">
    <g id="logo" transform="translate(40 2)">
      <path id="Path_11660" data-name="Path 11660" d="M-6525.218-5209.517c0-.359.056-.718.086-1.086-.008-.132-.007-.272-.026-.409-.024-.16-.1-.239-.213-.258a.275.275,0,0,0-.3.187,1.469,1.469,0,0,0-.1.4,17.946,17.946,0,0,0-.012,2.643,8.413,8.413,0,0,1,.016,1.607,1.1,1.1,0,0,0,.024.4.3.3,0,0,0,.161.184.354.354,0,0,0,.461-.363c-.023-.368-.048-.736-.058-1.1-.019-.733-.038-1.466-.035-2.2m-.766,2.914a.265.265,0,0,0-.026-.339,1.485,1.485,0,0,1-.244-1.093,1.4,1.4,0,0,0,0-.482.723.723,0,0,1-.022-.326.419.419,0,0,0-.43-.538,1.04,1.04,0,0,0-.391.1,5.2,5.2,0,0,0-2.045,1.866,1.491,1.491,0,0,1-.759.616.807.807,0,0,1-.751-.051.423.423,0,0,1-.2-.372c.064-.016.118-.023.169-.041a2.594,2.594,0,0,0,1.4-1.244,1.6,1.6,0,0,0,.166-.48c.085-.454-.19-.739-.619-.65a1.205,1.205,0,0,0-.352.123,2.658,2.658,0,0,0-1.3,1.654.538.538,0,0,1-.311.411c-.105.04-.095.119-.043.193a.272.272,0,0,0,.116.1.434.434,0,0,1,.243.285.975.975,0,0,0,1.193.681,4.627,4.627,0,0,0,.724-.288.883.883,0,0,0,.107-.061.637.637,0,0,0,.851.25,3.134,3.134,0,0,0,1.009-.67c.221-.212.433-.434.655-.657.067.214.122.414.195.607a.758.758,0,0,0,.32.423.3.3,0,0,0,.35-.02m-4.89-1.237c.031-.086.048-.149.075-.208a2.193,2.193,0,0,1,.872-.979c.077-.045.186-.125.251-.032a.335.335,0,0,1-.02.269,1.742,1.742,0,0,1-1.04.923,1.207,1.207,0,0,1-.139.026m3.745-.434c.035.025.072.046.108.068a2.888,2.888,0,0,1-1.615,1.3c-.078-.339,1.047-1.7,1.547-1.794-.037.075-.06.129-.089.179-.077.131-.073.158.049.245m-3.782-1.166a.323.323,0,0,0-.4-.3.994.994,0,0,0-.636.442c-.063.1-.118.2-.185.317.013-.177-.03-.268-.144-.324a.269.269,0,0,0-.332.059.565.565,0,0,0-.136.225,2.6,2.6,0,0,0-.108.636c.012.614.048,1.229.087,1.842.017.259.157.35.395.288a.366.366,0,0,0,.281-.405c-.009-.291-.028-.582-.021-.873a2.881,2.881,0,0,1,.178-.96,1.039,1.039,0,0,1,.653-.668c.089-.029.175-.066.264-.1a.156.156,0,0,0,.1-.182m-6.643-.74a.279.279,0,0,0,.136.34,1.872,1.872,0,0,0,.264.11c.2-.019.328-.144.3-.31a.465.465,0,0,0-.363-.365.342.342,0,0,0-.34.224m5.047-1.105a.507.507,0,0,0-.241-.065,1.465,1.465,0,0,0-.218.025q-.9.06-1.8.117c-.135.008-.268.013-.408.02.013-.138.03-.26.036-.383.012-.206-.067-.342-.21-.374q-.242-.054-.352.244a.62.62,0,0,0-.032.1c-.026.145-.051.29-.079.447-.063.006-.133.012-.2.016-.387.025-.775.043-1.161.077a.636.636,0,0,0-.281.1.2.2,0,0,0,0,.344.288.288,0,0,0,.157.07,4.552,4.552,0,0,0,.461-.034c.313-.037.628-.078.958-.119-.008.082-.014.134-.02.186q-.123.975-.248,1.95c-.061.467-.117.935-.186,1.4a1.324,1.324,0,0,1-.126.367c-.069.137-.171.132-.25,0a.8.8,0,0,1-.044-.086,3.276,3.276,0,0,1-.228-1.1.379.379,0,0,1,.15-.349.309.309,0,0,0,.111-.21.992.992,0,0,0-.4-.769.224.224,0,0,0-.371.115,1.339,1.339,0,0,0-.074.357,6.614,6.614,0,0,0,.073,1.483,2.377,2.377,0,0,0,.368,1.012c.259.372.555.373.765-.028a3.844,3.844,0,0,0,.323-.864c.1-.41.154-.832.227-1.249a1.97,1.97,0,0,0-.007.241,10.365,10.365,0,0,0,.327,2.613,3.365,3.365,0,0,0,.229.549.193.193,0,0,0,.25.122.288.288,0,0,0,.193-.276,1.108,1.108,0,0,0-.041-.253c-.083-.307-.184-.609-.257-.919a8.23,8.23,0,0,1-.174-1.758c-.016-.85.009-1.7.074-2.557.048,0,.083-.006.118-.007.671-.022,1.343-.039,2.014-.07a1.96,1.96,0,0,0,.545-.1.218.218,0,0,0,.034-.4m-7.044,3.925a.2.2,0,0,0-.024-.249.2.2,0,0,0-.249-.028.581.581,0,0,0-.164.151,2.013,2.013,0,0,1-.536.54,1.015,1.015,0,0,1-.976.147.451.451,0,0,1-.292-.418,1.637,1.637,0,0,0,.179-.045,2.59,2.59,0,0,0,1.388-1.227,1.619,1.619,0,0,0,.175-.5c.081-.449-.2-.729-.619-.641a1.25,1.25,0,0,0-.351.122,2.694,2.694,0,0,0-1.3,1.643,1.275,1.275,0,0,1-.1.271c-.072.123-.147.126-.26.053-.252-.162-.507-.319-.76-.477l-.325-.2a.622.622,0,0,0,.073-.042c.386-.336.768-.68,1.161-1.007a.492.492,0,0,0,.166-.479c-.018-.169-.122-.232-.263-.15a2.171,2.171,0,0,0-.329.25c-.225.2-.443.411-.671.609a4.672,4.672,0,0,1-.429.317c-.093.062-.127.037-.122-.077a4.534,4.534,0,0,1,.037-.49c.063-.4.141-.8.206-1.2a.888.888,0,0,0-.054-.564c-.043-.083-.1-.14-.2-.075a.809.809,0,0,0-.389.569c-.025.2-.037.4-.059.6-.042.4-.1.8-.127,1.2-.033.536-.037,1.074-.054,1.61,0,.044-.007.089-.012.159l-.047-.065a1.335,1.335,0,0,1-.181-.916,1.835,1.835,0,0,0,0-.532.839.839,0,0,1-.022-.35.418.418,0,0,0-.435-.524,1.032,1.032,0,0,0-.391.1,5.31,5.31,0,0,0-2.117,1.98c-.024.038-.042.081-.078.152a1.087,1.087,0,0,1-.021-.118c-.017-.483-.029-.967-.051-1.45a3.4,3.4,0,0,0-.056-.573c-.061-.283-.26-.376-.492-.223a2.159,2.159,0,0,0-.449.4,6.9,6.9,0,0,0-.932,1.539c-.084.176-.165.354-.257.55a.958.958,0,0,1-.023-.113c-.018-.369-.03-.738-.049-1.106a3.146,3.146,0,0,0-.141-.956c-.1-.271-.306-.323-.5-.112a1.435,1.435,0,0,0-.282.431c-.171.43-.317.87-.474,1.306a1.039,1.039,0,0,1-.072.18c-.046.08-.107.077-.133-.011a1.073,1.073,0,0,1-.049-.288c-.006-.373,0-.746,0-1.12a.453.453,0,0,0-.162-.389.169.169,0,0,0-.117-.038.432.432,0,0,0-.373.423c0,.458,0,.918.039,1.375a5.393,5.393,0,0,0,.153.943.419.419,0,0,0,.737.2.951.951,0,0,0,.224-.353c.11-.349.194-.707.289-1.061.023-.086.042-.174.072-.259.012-.033.047-.058.072-.087.023.029.058.055.066.089a1.378,1.378,0,0,1,.047.24c.041.346.062.695.124,1.036a1.588,1.588,0,0,0,.212.55c.154.247.413.217.552-.04.017-.032.032-.065.046-.1.094-.234.181-.471.282-.7.2-.449.394-.9.6-1.342a1.365,1.365,0,0,1,.239-.33c.082-.089.146-.062.165.061a2.165,2.165,0,0,1,.014.27,8.544,8.544,0,0,0,.167,1.722c.051.236.119.467.187.7a.226.226,0,0,0,.222.185.385.385,0,0,0,.4-.381,1.042,1.042,0,0,0-.011-.144.839.839,0,0,0,.663-.107q.158-.077.31-.169a5.3,5.3,0,0,0,1.031-.916c.059-.062.123-.118.17-.162.1.255.175.508.285.745a.452.452,0,0,0,.534.3c0,.075,0,.145,0,.212a1.793,1.793,0,0,0,.027.28c.023.109.085.209.2.215a.279.279,0,0,0,.3-.153.91.91,0,0,0,.087-.314c.01-.242-.006-.484,0-.726,0-.17.012-.34.019-.524a.946.946,0,0,1,.154.052,7.516,7.516,0,0,1,1.3.812c.126.108.26.207.4.3a.213.213,0,0,0,.252.017.129.129,0,0,1,.168.02.847.847,0,0,0,.585.2,2.182,2.182,0,0,0,1.322-.575,1.711,1.711,0,0,0,.493-.628m-6.405-.933.135.091c-.133.438-1.283,1.354-1.621,1.294a3.217,3.217,0,0,1,1.553-1.784,1.228,1.228,0,0,1-.1.187.13.13,0,0,0,.034.213m4.162.452c.015-.054.022-.092.037-.128a2.176,2.176,0,0,1,.9-1.057c.077-.045.186-.125.251-.032a.342.342,0,0,1-.021.27,1.739,1.739,0,0,1-1.03.918,1.13,1.13,0,0,1-.142.029" transform="translate(6555.657 5233.975)" fill="#f57518"/>
      <path id="Path_11661" data-name="Path 11661" d="M-6547.692-5227.235a7.933,7.933,0,0,0,5.093-1.841,7.8,7.8,0,0,0-5.045-1.845,7.8,7.8,0,0,0-5.091,1.887,7.936,7.936,0,0,0,5.043,1.8" transform="translate(6555.658 5248.117)" fill="#f57518"/>
      <path id="Path_11662" data-name="Path 11662" d="M-6559.137-5267.947a4.256,4.256,0,0,1-1.387-3.142,4.269,4.269,0,0,1,4.269-4.268,4.268,4.268,0,0,1,4.268,4.268,4.254,4.254,0,0,1-1.36,3.118,9.454,9.454,0,0,1,3.311,1.859,7.928,7.928,0,0,0,1.748-4.978,7.966,7.966,0,0,0-7.966-7.967,7.966,7.966,0,0,0-7.966,7.967,7.933,7.933,0,0,0,1.787,5.027,9.459,9.459,0,0,1,3.3-1.885" transform="translate(6564.222 5284.003)" fill="#fff"/>
      <rect id="Rectangle_3607" data-name="Rectangle 3607" width="3.634" height="14.683" transform="translate(26.899 5.518)" fill="#fff"/>
      <path id="Path_11663" data-name="Path 11663" d="M-6496.014-5298.5a3.635,3.635,0,0,0-3.634,3.634v1.885h-2.715v3.024h2.715v11.659h3.634v-11.659h3.149v-3.024h-3.149v-1.1a.789.789,0,0,1,.789-.79h2.912v-3.634Z" transform="translate(6518.103 5298.5)" fill="#fff"/>
      <rect id="Rectangle_3608" data-name="Rectangle 3608" width="3.634" height="3.634" transform="translate(26.899)" fill="#f57518"/>
    </g>
  </g>
</svg>
