<svg xmlns="http://www.w3.org/2000/svg" xmlns:xlink="http://www.w3.org/1999/xlink" width="54" height="54" viewBox="0 0 54 54">
  <defs>
    <filter id="Rectangle_7749" x="0" y="0" width="54" height="54" filterUnits="userSpaceOnUse">
      <feOffset dy="3" input="SourceAlpha"/>
      <feGaussianBlur stdDeviation="3" result="blur"/>
      <feFlood flood-opacity="0.161"/>
      <feComposite operator="in" in2="blur"/>
      <feComposite in="SourceGraphic"/>
    </filter>
    <clipPath id="clip-path">
      <rect id="Rectangle_7750" data-name="Rectangle 7750" width="17.084" height="12.817" fill="#4a4949"/>
    </clipPath>
  </defs>
  <g id="Group_13549" data-name="Group 13549" transform="translate(-300 -270)">
    <g transform="matrix(1, 0, 0, 1, 300, 270)" filter="url(#Rectangle_7749)">
      <rect id="Rectangle_7749-2" data-name="Rectangle 7749" width="36" height="36" rx="8" transform="translate(9 6)" fill="#fff"/>
    </g>
    <g id="Group_13386" data-name="Group 13386" transform="translate(318.495 287.872)">
      <g id="Group_13385" data-name="Group 13385" clip-path="url(#clip-path)">
        <path id="Path_14789" data-name="Path 14789" d="M5.869,0C7.346,0,8.822,0,10.3,0a1.353,1.353,0,0,1,1.409,1.054,1.281,1.281,0,0,1-.353,1.226q-1.018,1.09-2.031,2.184c-.313.337-.634.667-.935,1.014a.619.619,0,0,0-.149.367q-.014,2.915,0,5.83a1.066,1.066,0,0,1-.552,1,1.043,1.043,0,0,1-1.138-.056c-.817-.525-1.625-1.064-2.436-1.6a1.423,1.423,0,0,1-.636-1.275c0-1.3,0-2.6-.007-3.894a.6.6,0,0,0-.143-.368Q1.888,3.914.433,2.364A1.374,1.374,0,0,1,.052,1,1.355,1.355,0,0,1,1.44,0C2.916,0,4.393,0,5.869,0m.785,10.8v-.319c0-1.624.009-3.248-.006-4.872a1.314,1.314,0,0,1,.39-.974C7.924,3.693,8.8,2.742,9.673,1.8c.051-.055.1-.115.158-.186H1.906c.077.086.13.147.185.206.867.936,1.73,1.876,2.606,2.8a1.161,1.161,0,0,1,.335.859c-.01,1.342-.005,2.685,0,4.027a.353.353,0,0,0,.08.254c.491.344.993.672,1.544,1.039" transform="translate(0 0.001)" fill="#4a4949"/>
        <path id="Path_14790" data-name="Path 14790" d="M123,62.846c.764,0,1.528,0,2.292,0a.8.8,0,0,1,.89.765.778.778,0,0,1-.831.82q-2.359.015-4.718,0a.774.774,0,0,1-.766-.473.764.764,0,0,1,.122-.832.848.848,0,0,1,.718-.281c.764,0,1.528,0,2.292,0" transform="translate(-109.1 -57.235)" fill="#4a4949"/>
        <path id="Path_14791" data-name="Path 14791" d="M123,122.7c.764,0,1.528,0,2.292,0a.8.8,0,0,1,.891.764.778.778,0,0,1-.831.821c-1.573.01-3.146.008-4.718,0a.775.775,0,0,1-.766-.473.764.764,0,0,1,.121-.832.847.847,0,0,1,.718-.281c.764,0,1.528,0,2.292,0" transform="translate(-109.1 -111.747)" fill="#4a4949"/>
        <path id="Path_14792" data-name="Path 14792" d="M145.825,4.524c-.423,0-.846.008-1.268,0a.809.809,0,0,1-.847-.79.786.786,0,0,1,.8-.79q1.334-.031,2.67,0a.764.764,0,0,1,.779.662.776.776,0,0,1-.473.842,1.406,1.406,0,0,1-.434.074c-.408.01-.816,0-1.224,0" transform="translate(-130.881 -2.665)" fill="#4a4949"/>
      </g>
    </g>
  </g>
</svg>
