<svg xmlns="http://www.w3.org/2000/svg" width="210" height="124.422" viewBox="0 0 210 124.422">
  <g id="Group_13014" data-name="Group 13014" transform="translate(-102 -371.59)">
    <g id="Group_13015" data-name="Group 13015">
      <text id="MICRO_COLLECTOR" data-name="MICRO COLLECTOR" transform="translate(207 491.012)" fill="#fff" font-size="21" font-family="HelveticaNeue-Bold, Helvetica Neue" font-weight="700"><tspan x="-104" y="0">MICRO COLLECTOR</tspan></text>
      <g id="Group_13014-2" data-name="Group 13014" transform="translate(162 371.59)">
        <path id="Path_11660" data-name="Path 11660" d="M-6472.625-5204.858c.006-1.046.162-2.091.25-3.162-.023-.384-.021-.792-.078-1.191-.07-.466-.29-.7-.62-.752a.8.8,0,0,0-.871.544,4.331,4.331,0,0,0-.3,1.162,52.681,52.681,0,0,0-.034,7.693,24.462,24.462,0,0,1,.047,4.678,3.221,3.221,0,0,0,.069,1.168.85.85,0,0,0,.469.536,1.029,1.029,0,0,0,1.342-1.058c-.066-1.071-.141-2.143-.169-3.215-.054-2.134-.111-4.27-.1-6.4m-2.23,8.483a.769.769,0,0,0-.076-.986,4.325,4.325,0,0,1-.711-3.183,4.057,4.057,0,0,0-.014-1.4,2.123,2.123,0,0,1-.066-.949,1.22,1.22,0,0,0-1.249-1.565,3.049,3.049,0,0,0-1.139.3,15.132,15.132,0,0,0-5.952,5.434,4.355,4.355,0,0,1-2.209,1.793,2.353,2.353,0,0,1-2.187-.149,1.235,1.235,0,0,1-.595-1.083c.188-.046.346-.067.494-.119a7.564,7.564,0,0,0,4.084-3.621,4.7,4.7,0,0,0,.484-1.4c.247-1.321-.554-2.152-1.8-1.892a3.5,3.5,0,0,0-1.022.357,7.729,7.729,0,0,0-3.784,4.817,1.569,1.569,0,0,1-.905,1.2c-.308.117-.276.346-.124.563a.783.783,0,0,0,.337.288,1.255,1.255,0,0,1,.708.829,2.839,2.839,0,0,0,3.474,1.983A13.548,13.548,0,0,0-6485-5196a2.859,2.859,0,0,0,.313-.176,1.856,1.856,0,0,0,2.477.726,9.137,9.137,0,0,0,2.937-1.951c.643-.618,1.26-1.263,1.906-1.913.194.621.354,1.2.566,1.767a2.213,2.213,0,0,0,.934,1.232.866.866,0,0,0,1.017-.057m-14.234-3.6c.092-.251.14-.435.22-.6a6.391,6.391,0,0,1,2.537-2.85c.226-.132.542-.362.732-.094a.985.985,0,0,1-.058.783,5.069,5.069,0,0,1-3.027,2.688,3.593,3.593,0,0,1-.4.076m10.9-1.264c.1.072.21.134.316.2-.289,1.2-3.681,3.919-4.7,3.79-.227-.986,3.049-4.963,4.5-5.224-.106.218-.175.377-.259.521-.225.381-.212.459.143.713m-11.01-3.395a.941.941,0,0,0-1.165-.877,2.89,2.89,0,0,0-1.85,1.287c-.185.284-.345.585-.539.924.038-.515-.088-.779-.418-.942a.781.781,0,0,0-.967.172,1.633,1.633,0,0,0-.4.653,7.639,7.639,0,0,0-.316,1.853c.036,1.788.142,3.577.254,5.363.05.754.456,1.018,1.149.838a1.064,1.064,0,0,0,.818-1.18c-.027-.847-.082-1.693-.063-2.539a8.354,8.354,0,0,1,.519-2.8,3.023,3.023,0,0,1,1.9-1.945c.259-.086.509-.192.767-.281a.455.455,0,0,0,.307-.529m-19.34-2.153a.81.81,0,0,0,.4.99,5.55,5.55,0,0,0,.769.322c.583-.056.955-.42.881-.9a1.351,1.351,0,0,0-1.057-1.063,1,1,0,0,0-.989.652m14.693-3.219a1.5,1.5,0,0,0-.7-.189,4.5,4.5,0,0,0-.637.073q-2.621.174-5.245.34c-.391.022-.778.038-1.187.058.038-.4.089-.758.1-1.115.034-.6-.2-1-.612-1.089-.471-.1-.812.13-1.025.709a1.791,1.791,0,0,0-.094.307c-.076.421-.148.842-.229,1.3-.185.017-.387.035-.587.047-1.127.072-2.256.126-3.381.223a1.85,1.85,0,0,0-.819.292.579.579,0,0,0,0,1,.842.842,0,0,0,.459.2c.448-.006.895-.049,1.341-.1.913-.107,1.828-.229,2.789-.348-.022.238-.038.39-.056.54q-.357,2.839-.721,5.677c-.177,1.359-.341,2.721-.543,4.075a3.759,3.759,0,0,1-.366,1.069c-.2.4-.5.385-.729.011a1.958,1.958,0,0,1-.129-.251,9.469,9.469,0,0,1-.662-3.2,1.1,1.1,0,0,1,.437-1.017.892.892,0,0,0,.324-.611,2.884,2.884,0,0,0-1.172-2.237.651.651,0,0,0-1.079.336,3.815,3.815,0,0,0-.216,1.04,19.186,19.186,0,0,0,.212,4.318,6.942,6.942,0,0,0,1.071,2.946c.755,1.081,1.616,1.085,2.227-.081a11.175,11.175,0,0,0,.94-2.515c.295-1.192.449-2.423.661-3.635a5.735,5.735,0,0,0-.021.7,30.163,30.163,0,0,0,.953,7.608,9.747,9.747,0,0,0,.665,1.6.561.561,0,0,0,.729.354.839.839,0,0,0,.563-.8,3.239,3.239,0,0,0-.12-.736c-.242-.894-.534-1.773-.748-2.675a24,24,0,0,1-.5-5.119c-.046-2.474.024-4.943.216-7.443.141-.009.242-.019.343-.02,1.954-.065,3.91-.112,5.862-.205a5.679,5.679,0,0,0,1.587-.293.634.634,0,0,0,.1-1.151m-20.507,11.428a.59.59,0,0,0-.07-.725.569.569,0,0,0-.725-.083,1.713,1.713,0,0,0-.477.439,5.828,5.828,0,0,1-1.562,1.57,2.95,2.95,0,0,1-2.839.43,1.312,1.312,0,0,1-.85-1.218,5.233,5.233,0,0,0,.521-.132,7.531,7.531,0,0,0,4.041-3.573,4.738,4.738,0,0,0,.51-1.466c.234-1.306-.568-2.123-1.8-1.866a3.66,3.66,0,0,0-1.021.354,7.848,7.848,0,0,0-3.792,4.781,3.731,3.731,0,0,1-.3.79c-.21.356-.428.367-.757.153-.732-.472-1.474-.928-2.212-1.39-.286-.179-.576-.356-.945-.585a1.6,1.6,0,0,0,.211-.123c1.123-.979,2.236-1.979,3.379-2.931a1.433,1.433,0,0,0,.482-1.395c-.054-.492-.354-.675-.767-.437a6.3,6.3,0,0,0-.957.726c-.656.582-1.291,1.2-1.954,1.773a13.666,13.666,0,0,1-1.247.924c-.271.181-.37.108-.356-.224a13.084,13.084,0,0,1,.108-1.426c.184-1.163.41-2.321.6-3.484a2.585,2.585,0,0,0-.158-1.642c-.124-.242-.3-.406-.577-.217A2.354,2.354,0,0,0-6529-5207.9c-.072.582-.108,1.166-.172,1.745-.122,1.162-.3,2.321-.37,3.486-.1,1.56-.108,3.127-.158,4.688,0,.13-.019.261-.034.463-.084-.114-.11-.15-.137-.188a3.884,3.884,0,0,1-.528-2.666,5.287,5.287,0,0,0,.006-1.55,2.464,2.464,0,0,1-.063-1.019,1.218,1.218,0,0,0-1.266-1.525,3.017,3.017,0,0,0-1.14.3,15.469,15.469,0,0,0-6.162,5.765c-.07.111-.122.234-.228.442a2.883,2.883,0,0,1-.059-.344c-.05-1.406-.086-2.814-.148-4.221a9.994,9.994,0,0,0-.162-1.669c-.176-.823-.757-1.1-1.434-.65a6.286,6.286,0,0,0-1.307,1.173,20,20,0,0,0-2.713,4.479c-.246.514-.48,1.031-.747,1.6a2.488,2.488,0,0,1-.068-.329c-.052-1.073-.09-2.147-.144-3.22a9.078,9.078,0,0,0-.41-2.781c-.3-.789-.89-.94-1.448-.326a4.207,4.207,0,0,0-.82,1.254c-.5,1.251-.923,2.533-1.38,3.8a3.01,3.01,0,0,1-.212.523c-.132.233-.311.223-.385-.031a3.148,3.148,0,0,1-.144-.84c-.017-1.086,0-2.172-.008-3.26a1.32,1.32,0,0,0-.471-1.132.5.5,0,0,0-.339-.109,1.255,1.255,0,0,0-1.087,1.23c-.01,1.335.014,2.675.112,4a15.684,15.684,0,0,0,.446,2.745,1.22,1.22,0,0,0,2.146.569,2.784,2.784,0,0,0,.652-1.027c.322-1.015.564-2.057.841-3.088.068-.252.122-.508.21-.754a.987.987,0,0,1,.209-.253c.067.084.168.16.193.259a4.106,4.106,0,0,1,.137.7c.118,1.006.18,2.022.36,3.016a4.6,4.6,0,0,0,.618,1.6c.449.72,1.2.632,1.6-.115.05-.094.1-.191.136-.288.274-.682.528-1.371.82-2.041.571-1.309,1.147-2.616,1.756-3.907a3.97,3.97,0,0,1,.7-.96c.238-.26.426-.179.479.177a6.369,6.369,0,0,1,.042.785,24.706,24.706,0,0,0,.486,5.013c.146.686.345,1.358.543,2.028a.658.658,0,0,0,.645.538,1.122,1.122,0,0,0,1.159-1.11,2.787,2.787,0,0,0-.03-.417,2.44,2.44,0,0,0,1.93-.312c.309-.149.608-.314.9-.493a15.444,15.444,0,0,0,3-2.665c.172-.18.358-.343.5-.472.28.743.511,1.48.829,2.171a1.317,1.317,0,0,0,1.554.875c0,.218-.008.42,0,.618a5.048,5.048,0,0,0,.08.815c.066.317.248.608.572.627a.811.811,0,0,0,.861-.446,2.629,2.629,0,0,0,.254-.914c.028-.7-.018-1.408-.014-2.112,0-.494.034-.991.054-1.524a2.7,2.7,0,0,1,.449.151,21.838,21.838,0,0,1,3.783,2.362c.368.315.757.6,1.151.883a.62.62,0,0,0,.734.05.378.378,0,0,1,.491.059,2.455,2.455,0,0,0,1.7.581,6.352,6.352,0,0,0,3.849-1.674,4.985,4.985,0,0,0,1.436-1.83m-18.647-2.715c.13.092.265.178.393.264-.389,1.274-3.736,3.94-4.721,3.769-.133-1.136,3.213-5.067,4.521-5.194a3.8,3.8,0,0,1-.293.543.379.379,0,0,0,.1.619m12.116,1.314a3.834,3.834,0,0,1,.106-.372,6.348,6.348,0,0,1,2.633-3.078c.224-.132.54-.362.73-.092a.991.991,0,0,1-.06.785,5.073,5.073,0,0,1-3,2.674,3.443,3.443,0,0,1-.412.083" transform="translate(6561.244 5276.063)" fill="#f57518"/>
        <path id="Path_11661" data-name="Path 11661" d="M-6538.053-5220.19a23.1,23.1,0,0,0,14.827-5.359,22.721,22.721,0,0,0-14.687-5.372,22.71,22.71,0,0,0-14.822,5.492,23.1,23.1,0,0,0,14.683,5.239" transform="translate(6561.245 5280.981)" fill="#f57518"/>
        <path id="Path_11662" data-name="Path 11662" d="M-6549.42-5246.715a12.388,12.388,0,0,1-4.037-9.146,12.428,12.428,0,0,1,12.427-12.426,12.427,12.427,0,0,1,12.426,12.426,12.386,12.386,0,0,1-3.959,9.078,27.52,27.52,0,0,1,9.638,5.413,23.083,23.083,0,0,0,5.088-14.491,23.191,23.191,0,0,0-23.192-23.193,23.191,23.191,0,0,0-23.191,23.193,23.1,23.1,0,0,0,5.2,14.635,27.53,27.53,0,0,1,9.6-5.488" transform="translate(6564.222 5293.459)" fill="#fff"/>
        <rect id="Rectangle_3607" data-name="Rectangle 3607" width="10.579" height="42.745" transform="translate(78.312 16.064)" fill="#fff"/>
        <path id="Path_11663" data-name="Path 11663" d="M-6483.881-5298.5a10.581,10.581,0,0,0-10.579,10.579v5.486h-7.9v8.8h7.9v33.941h10.579v-33.941h9.169v-8.8h-9.169v-3.188a2.3,2.3,0,0,1,2.3-2.3h8.478V-5298.5Z" transform="translate(6548.187 5298.5)" fill="#fff"/>
        <rect id="Rectangle_3608" data-name="Rectangle 3608" width="10.579" height="10.578" transform="translate(78.312)" fill="#f57518"/>
      </g>
    </g>
  </g>
</svg>
